<?xml version="1.0" encoding="UTF-8"?>
<svg version="1.1" xmlns="http://www.w3.org/2000/svg" width="90" height="92">
<path d="M0 0 C29.7 0 59.4 0 90 0 C90 30.36 90 60.72 90 92 C60.3 92 30.6 92 0 92 C0 61.64 0 31.28 0 0 Z " fill="#168CDF" transform="translate(0,0)"/>
<path d="M0 0 C29.7 0 59.4 0 90 0 C90 30.36 90 60.72 90 92 C60.3 92 30.6 92 0 92 C0 61.64 0 31.28 0 0 Z M3.96459961 13.54931641 C2.42250794 19.06587518 2.5528494 24.51003953 2.56640625 30.2109375 C2.5611644 31.49304108 2.55592255 32.77514465 2.55052185 34.09609985 C2.54161253 36.80440139 2.54398771 39.51240772 2.55395508 42.22070312 C2.56542862 45.672818 2.54524889 49.12390743 2.51603794 52.57588768 C2.49315846 55.89178975 2.50014811 59.20745863 2.50390625 62.5234375 C2.49267227 63.75387787 2.48143829 64.98431824 2.46986389 66.25204468 C2.53202192 73.94649478 2.94901027 79.95890904 8.57362366 85.56977844 C14.56843641 90.1051819 21.17594267 89.70721336 28.40625 89.62890625 C30.32516052 89.63252419 30.32516052 89.63252419 32.28283691 89.63621521 C34.97941221 89.63905975 37.67515072 89.62450713 40.37158203 89.59692383 C43.80803291 89.56284114 47.24298956 89.56887089 50.67951202 89.5875864 C53.98440304 89.60076601 57.28886935 89.58241968 60.59375 89.56640625 C61.81791626 89.57136612 63.04208252 89.57632599 64.30334473 89.58143616 C71.31876532 89.48523016 76.07092986 88.85677802 82 85 C85.85848985 80.15215378 87.11566871 76.47754177 87.19287109 70.37036133 C87.21696548 68.63759697 87.21696548 68.63759697 87.24154663 66.86982727 C87.28606891 61.58175193 87.32750593 56.29382441 87.35009766 51.00561523 C87.36340985 48.21882098 87.3912132 45.43276369 87.43212891 42.64624023 C87.49116719 38.62471301 87.50878723 34.6039696 87.5234375 30.58203125 C87.55744156 28.72225395 87.55744156 28.72225395 87.59213257 26.8249054 C87.57487804 19.73588544 87.20808671 14.18536536 82 9 C75.7976167 3.90678541 68.2820319 4.38701252 60.62890625 4.3984375 C59.35200424 4.38986725 58.07510223 4.381297 56.75950623 4.37246704 C54.06688862 4.36101264 51.37581295 4.35806784 48.68334961 4.36865234 C45.25559972 4.38024013 41.83001207 4.34635735 38.40261936 4.299963 C35.10306744 4.26319004 31.80362585 4.270863 28.50390625 4.2734375 C27.28490128 4.25501801 26.0658963 4.23659851 24.80995178 4.21762085 C15.70543557 4.31584375 9.74148281 6.31383429 3.96459961 13.54931641 Z " fill="#111828" transform="translate(0,0)"/>
<path d="M0 0 C3.3 0 6.6 0 10 0 C11.98 5.28 13.96 10.56 16 16 C17.6037636 11.10959824 17.6037636 11.10959824 19.20092773 6.21704102 C20.88888889 1.11111111 20.88888889 1.11111111 22 0 C24.97 0 27.94 0 31 0 C31 8.91 31 17.82 31 27 C29.02 27 27.04 27 25 27 C24.67 21.72 24.34 16.44 24 11 C22.35 16.28 20.7 21.56 19 27 C17.02 27 15.04 27 13 27 C12.37273892 25.45925192 11.7483099 23.91735077 11.125 22.375 C10.77695312 21.51648438 10.42890625 20.65796875 10.0703125 19.7734375 C8.95478325 16.88283251 7.97979604 13.93938811 7 11 C6.67 16.28 6.34 21.56 6 27 C4.02 27 2.04 27 0 27 C0 18.09 0 9.18 0 0 Z " fill="#F4FAFC" transform="translate(41,36)"/>
<path d="M0 0 C7.26 0 14.52 0 22 0 C22 1.65 22 3.3 22 5 C19.36 5 16.72 5 14 5 C14 12.26 14 19.52 14 27 C11.69 27 9.38 27 7 27 C7 19.74 7 12.48 7 5 C4.69 5 2.38 5 0 5 C0 3.35 0 1.7 0 0 Z " fill="#F1F8FC" transform="translate(17,36)"/>
</svg>
